<svg xmlns="http://www.w3.org/2000/svg" version="1.1" xmlns:xlink="http://www.w3.org/1999/xlink" xmlns:svgjs="http://svgjs.dev/svgjs" viewBox="0 0 15.200511889188967 15.20051188918897"><g transform="matrix(0.8571428571428571,0,0,0.8571428571428571,4.858728725079986,5.3823723854800924)"><rect width="17.73393053738713" height="17.73393053738713" x="-5.668516845926653" y="-6.279434449726774" fill="#f9f9f9"></rect><g><path d=" M -0.2520191764053939 -1.1263924312989955 Q -0.3500537474505591 -1.119148614626104 -0.4257446128077615 -1.1978117756449562 L -0.2674042741043628 -1.33422781993335 Q -0.24098123747861752 -1.3081544017555482 -0.21549061935293684 -1.3076765026336425 Q -0.19000000122725613 -1.3071986035117367 -0.16727172294447162 -1.326779853888061 Q -0.1468162724899656 -1.3444029792267531 -0.14236967282768728 -1.3660531005068621 Q -0.13792307316540897 -1.3877032217869711 -0.15358807346646855 -1.4058858444131985 Q -0.17382203218867048 -1.429371731972076 -0.20688874307527935 -1.423322547635207 Q -0.23995545396188822 -1.4172733632983379 -0.30290693217134845 -1.3907571156142506 Q -0.37019426417693485 -1.3631452530988393 -0.41642588784724544 -1.351693747835042 Q -0.46265751151755596 -1.3402422425712444 -0.5136096000683952 -1.3511227146339557 Q -0.5645616886192344 -1.3620031866966669 -0.6082931477930257 -1.4127630081948856 Q -0.6526773153126944 -1.464280438969197 -0.6585749547005965 -1.523216572619533 Q -0.6644725940884986 -1.582152706269869 -0.6353337461698666 -1.6402554389248385 Q -0.6061948982512346 -1.6983581715798077 -0.5486165932681806 -1.7479640058664963 Q -0.4554306523087641 -1.8282471324094265 -0.3622156406279869 -1.8326586624560846 Q -0.26900062894720966 -1.8370701925027424 -0.19733091459548757 -1.7615423695184769 L -0.3587016904032575 -1.6225154918465732 Q -0.3803459667474297 -1.6461062803356659 -0.4048050718891865 -1.6461529243544175 Q -0.42926417703094333 -1.6461995683731692 -0.45123484603763503 -1.6272710263427221 Q -0.46790225011167697 -1.6129114427334177 -0.47002357148056917 -1.5939246053019263 Q -0.4721448928494613 -1.574937767870435 -0.45647989254840177 -1.5567551452442074 Q -0.44342572563085214 -1.541602959722351 -0.42221851083619 -1.540734604580106 Q -0.40101129604152785 -1.5398662494378614 -0.3767328450596795 -1.5469236439940688 Q -0.3524543940778312 -1.5539810385502761 -0.3079186431196147 -1.571231165697278 Q -0.24214652966621392 -1.5975376115209343 -0.19450458837393306 -1.6088842158545165 Q -0.1468626470816522 -1.6202308201880986 -0.09656326687669045 -1.61010795740148 Q -0.04626388667172876 -1.5999850946148617 -0.005795969227324893 -1.553013319497107 Q 0.03532465656295647 -1.5052839351032596 0.04409538165990684 -1.4468431584034782 Q 0.05286610675685721 -1.3884023817036966 0.026716896859781514 -1.327595566117295 Q 0.0005676869627058712 -1.266788750530893 -0.06079866440081225 -1.213919374514817 Q -0.15398460536022868 -1.1336362479718867 -0.2520191764053939 -1.1263924312989955 M 0.28905777046137876 -2.3447763324579585 L 0.37490444837175596 -2.2145213982260765 L 0.21793055327179534 -2.1110651453597242 L 0.5200448236102382 -1.6526679729667542 L 0.3563911882932579 -1.5448093263614084 L 0.054276917954815124 -2.0032064987543787 L -0.10102704209089058 -1.900850844322775 L -0.18687372000126778 -2.0311057785546573 L 0.28905777046137876 -2.3447763324579585 M 0.6384257538051019 -2.5280267422477762 L 0.81452718565552 -2.1588800428175463 Q 0.8390694389940868 -2.107434170280815 0.8763347982172263 -2.090864831067365 Q 0.9136001574403658 -2.074295491853915 0.9623383524751639 -2.0975460476483465 Q 1.011076547509962 -2.1207966034427783 1.022334100397598 -2.1610677780343157 Q 1.0335916532852343 -2.201338952625853 1.0094799657947124 -2.251882265995273 L 0.8333785339442943 -2.621028965425503 L 1.010280130737265 -2.7054198716423294 L 1.1863815625876832 -2.3362731722120995 Q 1.2281464498480514 -2.248724932982925 1.220635284579382 -2.16924643025227 Q 1.2131241193107125 -2.089767927521615 1.1643482197728352 -2.0282747439622084 Q 1.115572320234958 -1.9667815604028014 1.0379522318462056 -1.9297528974709286 Q 0.960332143457453 -1.8927242345390558 0.8845548779064017 -1.8947993310682483 Q 0.8087776123553505 -1.8968744275974407 0.7447506067468119 -1.94167166582486 Q 0.6807236011382733 -1.9864689040522796 0.6385281480298601 -2.074919702448765 L 0.4624267161794421 -2.4440664018789953 L 0.6384257538051019 -2.5280267422477762 M 1.7065312779046846 -2.8900938004539025 Q 1.799352211262733 -2.8717423882319295 1.8656329651503887 -2.8082454460686725 Q 1.9319137190380444 -2.7447485039054156 1.961806310742209 -2.6461816080366294 Q 1.99140868310944 -2.548571672321909 1.9710845430541335 -2.458809880166158 Q 1.9507604029988266 -2.369048088010407 1.8840592099648057 -2.3012730863664506 Q 1.817358016930785 -2.233498084722494 1.7120923999835378 -2.201573957659794 L 1.4451005169991562 -2.120602762655309 L 1.240495884460942 -2.795259671271757 L 1.5074877674453235 -2.876230866276242 Q 1.6137103445466365 -2.9084452126758755 1.7065312779046846 -2.8900938004539025 M 1.7630793643460436 -2.4469315119863246 Q 1.796330103059391 -2.5061293867371695 1.771371240083098 -2.5884279599868356 Q 1.7461221577698716 -2.6716834933905673 1.6854456917162957 -2.7029183531989487 Q 1.6247692256627195 -2.73415321300733 1.5424706524130536 -2.709194350031037 L 1.4773973619365734 -2.6894594351195495 L 1.5824567619065502 -2.3430398593476998 L 1.6475300523830303 -2.3627747742591874 Q 1.7298286256326962 -2.3877336372354803 1.7630793643460436 -2.4469315119863246 M 2.28975925269755 -2.9001393509826916 L 2.3080973820359727 -2.786610883132697 L 2.5302182973946583 -2.822489831838307 L 2.5539781345374846 -2.6753964256674445 L 2.3318572191787994 -2.639517476961834 L 2.352108892448188 -2.5141425602927097 L 2.603845929854698 -2.5548053688257344 L 2.628881462951502 -2.3998143301087853 L 2.1836524281658702 -2.3278969707033177 L 2.071231722221625 -3.0238758388271982 L 2.5164607570072564 -3.0957931982326654 L 2.54149629010406 -2.9408021595157163 L 2.28975925269755 -2.9001393509826916 M 3.4103334230875255 -2.4329696767976 L 3.214384548269809 -2.4284932432092536 L 2.9444540831614803 -2.8164295060236513 L 2.9534526282319318 -2.4225322780737515 L 2.7575037534142153 -2.4180558444854054 L 2.7414022958642956 -3.1228719503348445 L 2.937351170682012 -3.127348383923191 L 3.207395830524738 -2.7344134253226278 L 3.1982830907198894 -3.133309349058693 L 3.394231965537606 -3.1377857826470397 L 3.4103334230875255 -2.4329696767976 M 4.166359738042056 -3.056524061124373 L 4.1476767698398795 -2.9016468623533584 L 3.9610298892696822 -2.924162234289315 L 3.8952802127120223 -2.3791136309220895 L 3.7006909116920292 -2.4025871037914905 L 3.766440588249689 -2.947635707158716 L 3.581779312791941 -2.9699115538613112 L 3.600462280994117 -3.124788752632326 L 4.166359738042056 -3.056524061124373 M 4.260145888000904 -2.369459301471056 Q 4.197959301060286 -2.4455912816415264 4.218950266043224 -2.5527191463130725 L 4.4215312188831914 -2.501319170180284 Q 4.415339562144467 -2.4647177578191495 4.429575153099979 -2.4435671561693773 Q 4.443810744055491 -2.422416554519605 4.4728893497263 -2.415038567514898 Q 4.4990600948300274 -2.4083983792106625 4.519342708956784 -2.417179926009781 Q 4.5396253230835395 -2.4259614728088996 4.545527712687305 -2.449224357345546 Q 4.553151632592169 -2.4792722498720488 4.52922317307972 -2.5028821805233896 Q 4.505294713567272 -2.526492111174731 4.447455658850481 -2.562832773654494 Q 4.38623132251123 -2.602095741446272 4.350324188497624 -2.6333875571003524 Q 4.314417054484018 -2.664679372754433 4.29409073388618 -2.71265166362066 Q 4.273764413288341 -2.760623954486887 4.290241917598852 -2.8255661738183595 Q 4.30696535480952 -2.8914776800055257 4.351848853560712 -2.9301263739013326 Q 4.396732352311904 -2.968775067797139 4.461037886157444 -2.9782512651800666 Q 4.525343420002983 -2.987727462562994 4.599009221035698 -2.969036562151071 Q 4.718231504286013 -2.938786815431775 4.775332946420473 -2.864976753067861 Q 4.832434388554934 -2.7911666907039465 4.811703801217086 -2.6891311932110256 L 4.605245700954345 -2.7415149009444413 Q 4.612146266903672 -2.772778013226794 4.59814938647585 -2.7928363615707945 Q 4.584152506048028 -2.812894709914795 4.556043187232913 -2.820026764019344 Q 4.534718876407653 -2.825437287822796 4.517951732725903 -2.816279619300975 Q 4.501184589044153 -2.8071219507791545 4.495282199440388 -2.7838590662425076 Q 4.49036354143725 -2.764473329128635 4.501821460648227 -2.746606709768646 Q 4.513279379859203 -2.7287400904086567 4.532990682088509 -2.7129061217202652 Q 4.552701984317815 -2.697072153031874 4.592384966421518 -2.6704965828337164 Q 4.651670729049382 -2.631725480842252 4.688301217018525 -2.5992184454323213 Q 4.724931704987667 -2.5667114100223904 4.745503958485663 -2.519708406011857 Q 4.766076211983658 -2.4727054020013237 4.750828372173931 -2.4126096169483193 Q 4.735334599464048 -2.351544545039621 4.692505418501854 -2.310827088609882 Q 4.649676237539661 -2.2701096321801426 4.584871615521341 -2.256633320924362 Q 4.520066993503021 -2.2431570096685816 4.441554758191838 -2.263077574581289 Q 4.322332474941523 -2.2933273213005854 4.260145888000904 -2.369459301471056 M 5.6757312536182605 -2.579104433724662 L 5.264683204360222 -2.2271037217919143 L 5.1802292154234415 -2.019634389714457 L 4.997767347480321 -2.0939086567704646 L 5.082221336417101 -2.3013779888479218 L 5.033873007503627 -2.840383961997825 L 5.241342339581084 -2.755929973061045 L 5.253640161843586 -2.4572516116627012 L 5.47104052866684 -2.6624273424524674 L 5.6757312536182605 -2.579104433724662 M 6.053013997167093 -1.5478985254641762 L 5.884817145086022 -1.6485256537647415 L 5.863121788745529 -2.1206340221646873 L 5.6608407247127595 -1.7825240235935558 L 5.492643872631689 -1.883151151894121 L 5.854593492284233 -2.488144931063278 L 6.022790344365304 -2.3875178027627126 L 6.041918682126701 -1.9111186983402906 L 6.246766764738566 -2.2535194329338983 L 6.4149636168196364 -2.1528923046333333 L 6.053013997167093 -1.5478985254641762 M 6.532616030648004 -1.864514332613294 Q 6.618300675796494 -1.8990489758831655 6.7088432772278965 -1.8825478448299866 Q 6.799385878659299 -1.8660467137768075 6.879103843508699 -1.799255650899579 Q 6.9802843373560135 -1.7144823787861734 7.003994403736796 -1.6026428385858538 Q 7.027704470117578 -1.4908032983855342 6.969925128559305 -1.3813567466395218 L 6.808189642182159 -1.5168655376692837 Q 6.819314653556683 -1.5597285067908542 6.8071229275755964 -1.5973398324468593 Q 6.794931201594508 -1.6349511581028646 6.76120437031207 -1.663208915474 Q 6.709081085602848 -1.7068799950475724 6.646889315161056 -1.695713809964225 Q 6.5846975447192655 -1.6845476248808777 6.5326775822860395 -1.62245959456548 Q 6.480015398094379 -1.5596050453572996 6.479911657967985 -1.4964188978407262 Q 6.479807917841592 -1.4332327503241529 6.5319312025508145 -1.3895616707505805 Q 6.565658033833253 -1.3613039133794451 6.604823073668605 -1.3558863812203128 Q 6.6439881135039585 -1.3504688490611805 6.6842408428042255 -1.368927391362225 L 6.845976329181372 -1.2334186003324632 Q 6.7483380051984 -1.1573675800250651 6.634074670878299 -1.1611279563430257 Q 6.519811336558197 -1.1648883326609865 6.418630842710883 -1.249661604774392 Q 6.338912877861483 -1.3164526676516206 6.3068124564476555 -1.402707017948024 Q 6.2747120350338275 -1.4889613682444276 6.2937095365102245 -1.5793693044981343 Q 6.3127070379866215 -1.6697772407518412 6.380140322622284 -1.7502617244940233 Q 6.446931385499513 -1.8299796893434228 6.532616030648004 -1.864514332613294" fill="#343432" fill-rule="nonzero"></path></g><g><path d=" M -1.82981225636264 2.12632846605702 L -2.4842901590367683 1.8133561431412801 L -2.444983189913145 1.6101223807436054 L -1.970121456726809 1.5878887495676366 L -2.401688557255241 1.386270700421529 L -2.3623815881316177 1.1830369380238541 L -1.6393538504158074 1.1415774337629727 L -1.6741034897859675 1.3212478613899026 L -2.194984921992237 1.3233770825492919 L -1.717018344964416 1.5431359304810837 L -1.7527174280332143 1.7277153861852521 L -2.277206746294309 1.7484989140381477 L -1.7948727282527526 1.9456762328146424 L -1.82981225636264 2.12632846605702 M -1.8283022955207633 2.8494506791013787 L -2.530277109369923 2.843504190941287 L -2.5288286058437466 2.6725103260293124 L -2.239838974501286 2.6749583816963587 L -2.237585746793901 2.4089679251666203 L -2.526575378136361 2.406519869499574 L -2.525126874610185 2.235526004587599 L -1.8231520607610254 2.241472492747691 L -1.8246005642872016 2.4124663576596657 L -2.0995906979175705 2.4101368929245868 L -2.101843925624956 2.676127349454325 L -1.826853791994587 2.678456814189404 L -1.8283022955207633 2.8494506791013787 M -1.9284190199944398 3.184346096415785 L -2.0693435180943927 3.201789887152788 L -2.0412123344410564 3.429055450990036 L -2.172212572111435 3.4452708057596446 L -2.2003437557647714 3.2180052419223966 L -2.3531773663802134 3.236923155820273 L -2.3213608748246934 3.4939615009462437 L -2.4573232427098595 3.51079107369955 L -2.510145989307827 3.0840478752278613 L -1.8134629071517212 2.9978116703167608 L -1.7606401605537538 3.4245548687884493 L -1.8966025284389199 3.4413844415417554 L -1.9284190199944398 3.184346096415785 M -2.3312755626093034 4.078199996841207 L -2.10999379149483 3.871861978598224 L -2.120014109017238 3.832105303224771 L -2.376977986431019 3.8968707701378973 L -2.418770042439112 3.7310563435803252 L -1.738058186044869 3.5594889557576286 L -1.6679159633880114 3.837785683371799 Q -1.6476309303548435 3.918268709127813 -1.6614542233004352 3.982082238822858 Q -1.6752775162460267 4.045895768517903 -1.7171585625438202 4.0863584421937995 Q -1.7590396088416136 4.126821115869696 -1.8191594594063476 4.141973791147484 Q -1.88703671004395 4.159081650332083 -1.9500225560848046 4.134221376831621 Q -2.013008402125659 4.1093611033311594 -2.0541295724382165 4.0403172813618795 L -2.2841067508574793 4.265347273599168 L -2.3312755626093034 4.078199996841207 M -2.0026834329150964 3.802533146634249 L -1.9767772461498458 3.9053186975997614 Q -1.9652905406973291 3.9508934230278663 -1.9372446627615727 3.968059632009836 Q -1.9091987848258163 3.9852258409918053 -1.8684724344432548 3.974961125481046 Q -1.8296854340789106 3.965185205946989 -1.813126261595671 3.936776689500854 Q -1.7965670891124312 3.9083681730547193 -1.8080537945649482 3.8627934476266144 L -1.8339599813301986 3.760007896661102 L -2.0026834329150964 3.802533146634249 M -1.6260058134766644 4.422087869983262 L -1.7583632549268486 4.473522369035562 L -1.6754160698354634 4.686972045740437 L -1.7984525647046485 4.734784396972152 L -1.881399749796034 4.521334720267277 L -2.0249423271434166 4.5771157967042795 L -1.931128698590278 4.81852831315215 L -2.058825666749963 4.868151738294158 L -2.214578023035097 4.467351035311206 L -1.5602475730489749 4.213076258306174 L -1.404495216763841 4.613876961289126 L -1.5321921849235256 4.663500386431133 L -1.6260058134766644 4.422087869983262 M -1.7705485542728243 5.400201650587094 Q -1.7803220446942691 5.335005953758377 -1.7569337192742935 5.2785591980141415 Q -1.733545393854318 5.222112442269907 -1.6753085631359048 5.185052065209293 L -1.5820858960329274 5.34136436267244 Q -1.6135325385200199 5.364776083589302 -1.6193582569520313 5.395030190827012 Q -1.6251839753840425 5.425284298064724 -1.606232114489481 5.457062072823715 Q -1.58676804113831 5.4896987063599765 -1.5604693384906696 5.499629881469247 Q -1.534170635843029 5.509561056578517 -1.5075460137476577 5.493682470423614 Q -1.4852156855386367 5.48036494655176 -1.4795788043157168 5.456627306187168 Q -1.473941923092797 5.432889665822577 -1.4775558941863756 5.405354429979483 Q -1.481169865279954 5.377819194136389 -1.4932198278588324 5.330281857212161 Q -1.5100142405856256 5.261122998768993 -1.5140033418971748 5.2134356097575765 Q -1.5179924432087237 5.16574822074616 -1.4986578194955549 5.118122887929788 Q -1.4793231957823858 5.070497555113416 -1.4226385164825632 5.036691532977172 Q -1.3384703563100993 4.9864947122294145 -1.2544366097523187 5.019045894073746 Q -1.1704028631945382 5.051597075918076 -1.1120106431410248 5.149506976526861 Q -1.052593998174292 5.249134594690186 -1.063893575893486 5.338541359218201 Q -1.07519315361268 5.427948123746216 -1.157659110279365 5.482951450836932 L -1.2524184147521717 5.324062577041975 Q -1.2242416412382098 5.3049296359627025 -1.2192747815834686 5.275187741181601 Q -1.2143079219287274 5.2454458464005 -1.232747570366679 5.214526930418779 Q -1.2486261565215817 5.187902308323407 -1.272529363022123 5.180035497089338 Q -1.2964325695226642 5.172168685855268 -1.3230571916180354 5.188047272010171 Q -1.3522583900452168 5.205462495534903 -1.352185908201835 5.24267801308313 Q -1.3521134263584533 5.279893530631357 -1.3361778724089302 5.349564601531134 Q -1.321101177236677 5.419747884887522 -1.3173681821534329 5.467005844510304 Q -1.3136351870701888 5.514263804133085 -1.3321109520060876 5.561376924492847 Q -1.3505867169419865 5.6084900448526085 -1.4046948199099991 5.640759429619024 Q -1.4562263465462015 5.67149217701561 -1.5139329065590315 5.670395394682752 Q -1.5716394665718612 5.669298612349895 -1.6262546935960587 5.634338964509915 Q -1.6808699206202564 5.599379316669936 -1.7213347046924279 5.5315294732656035 Q -1.7607750638513797 5.46539734741581 -1.7705485542728243 5.400201650587094 M -0.5950515905720444 5.8931592038430205 L -0.7030449683551127 5.977458850075988 L -0.8174955829487767 5.830840103596786 L -1.2628697322001168 6.178499228572163 L -1.3680904585200981 6.043704574550961 L -0.9227163092687581 5.696045449575584 L -1.0371669238624222 5.5494267030963815 L -0.9291735460793539 5.465127056863414 L -0.5950515905720444 5.8931592038430205 M -0.40111690450045345 6.0949868552402515 L -0.6946913358226201 6.395343398824483 Q -0.738727500520945 6.440396880362118 -0.7403238762681891 6.4863800466784305 Q -0.7419202520154331 6.532363212994742 -0.6990121743605429 6.574302417469338 Q -0.6561040967056526 6.616241621943932 -0.6094542394207739 6.614294620325945 Q -0.5628043821358951 6.612347618707958 -0.5187682174375701 6.5672941371703235 L -0.22519378611540342 6.266937593586092 L -0.10290576479896618 6.386464326338689 L -0.3957812093798896 6.686105735295339 Q -0.4614859630567555 6.753328390288 -0.5355254863408272 6.771852671431068 Q -0.6095650096248989 6.790376952574135 -0.6809031594476778 6.7667947902504055 Q -0.7522413092704567 6.743212627926676 -0.8115974833597215 6.6851967284034854 Q -0.8709536574489863 6.627180828880295 -0.895077906465169 6.558155321932463 Q -0.9192021554813519 6.489129814984631 -0.9005936397780159 6.415727000710799 Q -0.8819851240746799 6.342324186436967 -0.816280370397814 6.275101531444306 L -0.5234049258168906 5.975460122487656 L -0.40111690450045345 6.0949868552402515 M 0.353188949161487 6.784776269309153 Q 0.39463640891427565 6.869079935184611 0.3848922441295861 6.960159852030471 Q 0.37514807934489647 7.051239768876331 0.31417973169524227 7.135494505151931 Q 0.25379761815760393 7.218939099732574 0.17003744207575655 7.257076783232465 Q 0.08627726599390906 7.295214466732357 -0.007163866463758051 7.281910152957168 Q -0.10060499892142521 7.268605839181978 -0.18972058536677133 7.204120086860228 L -0.40278785114064436 7.049940515400045 L 0.008748495494521669 6.481221045539745 L 0.22181576126839464 6.635400616999928 Q 0.3117414894086985 6.700472603433694 0.353188949161487 6.784776269309153 M 0.04153230844250261 7.123354381855958 Q 0.11635036790706099 7.11207351407206 0.17321507677260395 7.033489769661164 Q 0.2300797856381468 6.954906025250268 0.21798877615929035 6.8795017316736935 Q 0.2058977666804339 6.804097438097119 0.1273140222695378 6.747232729231577 L 0.061692544977964725 6.699747766158288 L -0.1774909727245249 7.030285577701026 L -0.11186949543295188 7.077770540774314 Q -0.033285751022055776 7.1346352496398575 0.04153230844250261 7.123354381855958 M 0.7128290402806642 7.11109739153445 L 0.6453522212626653 7.236040894347571 L 0.8468456166443877 7.344859144735752 L 0.7841206862896283 7.461003809322596 L 0.5826272909079059 7.352185558934416 L 0.5094482054940198 7.487687667619067 L 0.7373381155545704 7.6107615839969665 L 0.6722372408681913 7.731305667696948 L 0.29388719713831957 7.5269744551776565 L 0.6274697812977224 6.909296011693075 L 1.005819825027594 7.113627224212367 L 0.9407189503412148 7.23417130791235 L 0.7128290402806642 7.11109739153445 M 1.4670857309818877 8.054895689186406 L 1.3071354637931916 7.994423282038478 L 1.1927423402790713 7.488262029775246 L 1.0396163034658985 7.89328229698405 L 0.8796660362772022 7.832809889836123 L 1.127921181410799 7.176171950850949 L 1.2878714485994953 7.236644357998877 L 1.40155729249785 7.744676373621041 L 1.5553906089267882 7.337785343053305 L 1.7153408761154845 7.398257750201232 L 1.4670857309818877 8.054895689186406 M 2.353267659585689 7.547721424946616 L 2.323001859932896 7.681336474141595 L 2.141597486573288 7.640245680452402 L 2.016778677786222 8.19128584684046 L 1.8500036893749696 8.153508826835878 L 1.9748224981620353 7.602468660447822 L 1.793418124802427 7.561377866758628 L 1.8236839244552199 7.427762817563647 L 2.353267659585689 7.547721424946616 M 2.512664288921965 8.25601812041188 Q 2.454394280367148 8.225186219675443 2.4228488379723614 8.17285902727878 Q 2.3913033955775753 8.12053183488212 2.396044575826562 8.051665869341466 L 2.577176371345745 8.069421788129203 Q 2.577352450188355 8.108625984285242 2.5982427521762266 8.131272071869095 Q 2.619133054164098 8.153918159452948 2.65595655105536 8.157527879206498 Q 2.6937752775923327 8.161235158953389 2.7173776296813847 8.14596496000693 Q 2.7409799817704363 8.130694761060472 2.744004341563952 8.099842642043468 Q 2.746540901390772 8.073966671255013 2.730782902477617 8.05534046739451 Q 2.715024903564462 8.036714263534007 2.6907197075255938 8.023278957601049 Q 2.666414511486725 8.009843651668092 2.6210045580451133 7.991325116941211 Q 2.555377701996971 7.963791214834238 2.5146315870915728 7.938696312560746 Q 2.473885472186175 7.913601410287255 2.447033312896079 7.869772635019637 Q 2.4201811536059834 7.8259438597520194 2.4266201131663716 7.760258703135173 Q 2.4361809925136146 7.662726197855612 2.5122568769893365 7.614417712045803 Q 2.588332761465059 7.5661092262359935 2.701788941075976 7.5772310654766635 Q 2.8172355799783126 7.5885480247040125 2.882482305193382 7.650710029567991 Q 2.947729030408451 7.712872034431969 2.9430467392964177 7.811887569323935 L 2.758929254840105 7.79383897055618 Q 2.760255835322219 7.759806042615368 2.739267973341008 7.738155184677225 Q 2.7182801113597974 7.7165043267390825 2.6824518441142446 7.7129921669788715 Q 2.651599725097241 7.709967807185356 2.6310806219386578 7.724535456466122 Q 2.6105615187800746 7.739103105746889 2.607537158986559 7.769955224763892 Q 2.6042201192130254 7.803793032718025 2.6342138280022938 7.8258243157733665 Q 2.6642075367915625 7.8478555988287075 2.729736832846366 7.87638473058139 Q 2.7951685689078305 7.905909091979781 2.8354170689903735 7.930955214256604 Q 2.8756655690729165 7.956001336533427 2.902615288356351 7.998834882155334 Q 2.9295650076397868 8.041668427777243 2.923418728059416 8.10436789545696 Q 2.917565128459063 8.164081674199547 2.8824301845912927 8.20987234704248 Q 2.8472952407235224 8.255663019885416 2.7867426814655167 8.278866199997324 Q 2.726190122207511 8.302069380109234 2.6475669801964368 8.294362140635437 Q 2.5709342974767826 8.286850021148318 2.512664288921965 8.25601812041188 M 3.8425876649418433 7.577811974051382 L 3.852769011492056 7.714433129742675 L 3.667283354860082 7.7282559798035475 L 3.709272119829937 8.291693592690997 L 3.5387449838940896 8.304401696779218 L 3.4967562189242347 7.74096408389177 L 3.3112705622922602 7.7547869339526425 L 3.301089215742048 7.61816577826135 L 3.8425876649418433 7.577811974051382 M 4.548451467387443 7.436687093665914 L 4.695473394267312 8.123118847751147 L 4.528265659297832 8.158931881221886 L 4.467739538402843 7.876341030893348 L 4.2076386173392075 7.932050194070051 L 4.268164738234196 8.214641044398586 L 4.100957003264717 8.250454077869325 L 3.953935076384848 7.564022323784091 L 4.121142811354328 7.528209290313353 L 4.17873687102949 7.797110618480646 L 4.438837792093126 7.741401455303944 L 4.381243732417963 7.472500127136652 L 4.548451467387443 7.436687093665914 M 5.270002951529442 7.926875702627451 L 5.0412553280236665 7.728846601886019 L 5.002793114874791 7.743047241297344 L 5.094577735460179 7.991644472625443 L 4.934162163546576 8.050871529682428 L 4.691019508259999 7.3923233923529 L 4.960255000302129 7.29291891647363 Q 5.038117529359608 7.264171280592168 5.103040895509307 7.271114372683751 Q 5.167964261659005 7.278057464775335 5.212660273161183 7.315387299436062 Q 5.25735628466336 7.35271713409679 5.278830422309753 7.410879505199968 Q 5.303075416426648 7.476546698380974 5.285069995652068 7.541823453989156 Q 5.267064574877489 7.6071002095973395 5.202796874731075 7.655346066599683 L 5.451056784157076 7.8600287902765835 L 5.270002951529442 7.926875702627451 M 4.960883910758444 7.629536807370174 L 5.060322803289683 7.592822959136019 Q 5.1044136329969305 7.576544177371818 5.11849283549786 7.546828423015958 Q 5.1325720379987905 7.517112668660097 5.118025041528653 7.477712352751493 Q 5.104170759176141 7.440188242362346 5.074159131969823 7.426751269770687 Q 5.044147504763505 7.413314297179028 5.000056675056258 7.429593078943229 L 4.900617782525019 7.466306927177385 L 4.960883910758444 7.629536807370174 M 5.4738501512822095 7.06792909737932 L 5.781025447664046 7.699155948275834 L 5.627265060907202 7.77398069995859 L 5.320089764525366 7.142753849062075 L 5.4738501512822095 7.06792909737932 M 6.168480076980035 6.655671054291789 L 6.330323029842911 7.382728038721913 L 6.148997423421345 7.496381126915112 L 5.56519114346529 7.0338065626729 L 5.7194026405154075 6.937148328788964 L 6.148312884719838 7.293816244946973 L 6.015115895847775 6.75179819897856 L 6.168480076980035 6.655671054291789 M 6.46054656256462 6.58749006593059 L 6.5510889101920435 6.696879659979178 L 6.727498889326737 6.550864183875797 L 6.8116650152902585 6.652550285385752 L 6.635255036155564 6.798565761489132 L 6.733448849779672 6.917199546584079 L 6.932969306530264 6.752055405488989 L 7.020323543325736 6.857593253268261 L 6.68907336416452 7.1317707848160925 L 6.241462603358524 6.590985608604061 L 6.572712782519741 6.31680807705623 L 6.660067019315212 6.422345924835501 L 6.46054656256462 6.58749006593059 M 7.1713372704771565 5.675244467257655 L 7.2748151637154 5.765029352460983 L 7.152917436359056 5.905517587076408 L 7.579669331830641 6.2757983180244405 L 7.467602066357873 6.404956856299911 L 7.040850170886288 6.034676125351878 L 6.918952443529945 6.175164359967303 L 6.815474550291702 6.0853794747639745 L 7.1713372704771565 5.675244467257655 M 7.880931935489772 5.820625273200345 Q 7.7975703664296105 5.865044850008638 7.70195117826772 5.861111549198769 Q 7.606331990105829 5.857178248388901 7.519759380266885 5.801373380987625 Q 7.433186770427941 5.745568513586349 7.390541936080062 5.6603765650029185 Q 7.347897101732183 5.575184616419487 7.3539316794798895 5.480919915330443 Q 7.359966257227597 5.386655214241399 7.413603945312318 5.303444647502996 Q 7.467241633397039 5.220234080764594 7.550603202457201 5.175814503956301 Q 7.6339647715173635 5.1313949271480075 7.7286219094625475 5.1358978413184415 Q 7.823279047407732 5.140400755488876 7.909851657246676 5.196205622890152 Q 7.9964242670856205 5.252010490291428 8.039760254235636 5.33705308090186 Q 8.083096241385652 5.422095671512293 8.077332561052515 5.51594011721377 Q 8.071568880719378 5.609784562915246 8.017931192634656 5.692995129653649 Q 7.964293504549935 5.776205696392052 7.880931935489772 5.820625273200345 M 7.912614312825097 5.465085926620557 Q 7.892906348289015 5.392299622044459 7.81557935697656 5.3424544977637085 Q 7.73741185488897 5.2920675786538185 7.663402867997457 5.304443759780963 Q 7.589393881105944 5.316819940908108 7.543883115458302 5.387422846019479 Q 7.497830554981521 5.458866261905986 7.516698008742468 5.531110771652946 Q 7.535565462503414 5.603355281399906 7.614573475366139 5.654283995338933 Q 7.69274097745373 5.7046709144488235 7.766749964345243 5.692294733321679 Q 7.840758951236755 5.679918552194534 7.886811511713536 5.608475136308027 Q 7.932322277361179 5.537872231196656 7.912614312825097 5.465085926620557 M 8.061849476401923 4.560635448560287 Q 8.022165006797913 4.563973542664473 7.990961585001147 4.589050354028224 Q 7.959758163204381 4.614127165391974 7.9404742803646435 4.65808318730733 Q 7.907129232954264 4.734090475202634 7.936950254879266 4.8017732400054145 Q 7.966771276804266 4.869456004808196 8.050104568352129 4.906015032691865 Q 8.138932362639412 4.944984545930501 8.209932509378435 4.918802888934865 Q 8.280932656117459 4.892621231939229 8.31789343156029 4.808372189934796 Q 8.343203527787445 4.750679911170891 8.331375532000719 4.697988844416941 Q 8.319547536213992 4.645297777662991 8.272637460003022 4.602877914981921 L 8.185458239665042 4.801595764057595 L 8.070073682137233 4.750975571603284 L 8.219523774145197 4.410316401759273 L 8.365128096739815 4.474194263665902 Q 8.416102922336227 4.517305366127047 8.448189683505738 4.581068127654845 Q 8.48027644467525 4.644830889182642 8.483289631057342 4.722592838154017 Q 8.486302817439437 4.800354787125392 8.450949032233252 4.8809408273035455 Q 8.409167286080487 4.976178874786817 8.334758214234919 5.032533023055432 Q 8.26034914238935 5.088887171324046 8.167893841465352 5.098012264805921 Q 8.075438540541354 5.107137358287796 7.980200493058081 5.065355612135032 Q 7.88496244557481 5.023573865982267 7.828608297306195 4.949164794136698 Q 7.772254149037581 4.8747557222911295 7.763129055555706 4.782300421367132 Q 7.754003962073831 4.689845120443133 7.795785708226596 4.594607072959861 Q 7.846405900680907 4.479222515432051 7.937017842399115 4.424516702047585 Q 8.027629784117323 4.36981088866312 8.137779765083389 4.387558612268571 L 8.061849476401923 4.560635448560287 M 8.150314650577473 4.043545624149786 L 8.286835144825584 4.082611653513565 L 8.349835994996747 3.862448321240203 L 8.47674236993161 3.898763221775546 L 8.413741519760448 4.118926554048908 L 8.561798957184454 4.161293938006808 L 8.633053193840924 3.912288247793705 L 8.76476662843241 3.949978712743266 L 8.646468088809701 4.363385843212897 L 7.971556913019746 4.170256599456754 L 8.089855452642455 3.7568494689871224 L 8.221568887233943 3.794539933936683 L 8.150314650577473 4.043545624149786 M 8.201322099843987 3.1251890201610353 L 8.336549400153137 3.147156661160902 L 8.306724719671566 3.330749930193762 L 8.864413950873534 3.421346405850146 L 8.836994486559833 3.590133766090034 L 8.279305255357864 3.4995372904336497 L 8.249480574876294 3.68313055946651 L 8.114253274567144 3.661162918466643 L 8.201322099843987 3.1251890201610353 M 8.228739376420663 2.405878077374887 L 8.930529851311025 2.4230282771743292 L 8.926352238539366 2.593977239006597 L 8.637438496027523 2.5869168291176527 L 8.630939987271608 2.8528374364122913 L 8.919853729783451 2.8598978463012354 L 8.915676117011794 3.0308468081335027 L 8.213885642121431 3.0136966083340604 L 8.21806325489309 2.842747646501793 L 8.492981175968374 2.84946602961411 L 8.499479684724289 2.583545422319472 L 8.224561763649005 2.5768270392071546 L 8.228739376420663 2.405878077374887 M 8.334188731595663 2.0726233211437037 L 8.475373703783228 2.057431098515119 L 8.450873570107554 1.8297454743534824 L 8.582115938619939 1.815623126557897 L 8.606616072295614 2.0433087507195338 L 8.759732168893395 2.0268326782913504 L 8.732022410718724 1.769319243104172 L 8.868236081068698 1.754661957892087 L 8.914240698887651 2.1821939159248545 L 8.216269920889971 2.2572991292013773 L 8.170265303071018 1.8297671711686099 L 8.306478973420992 1.815109885956525 L 8.334188731595663 2.0726233211437037 M 8.751261073470909 1.1853134255175801 L 8.526714057213104 1.3880932013575722 L 8.536098527834818 1.4280047499513087 L 8.794063415087017 1.3673490252012077 L 8.833203524265384 1.5338093864092308 L 8.149839936148236 1.6944898346151585 L 8.084148641796242 1.415108994459003 Q 8.065150811025454 1.3343124448668044 8.079990893411994 1.2707276828969682 Q 8.094830975798534 1.207142920927132 8.137352525943752 1.167353880058476 Q 8.179874076088971 1.1275648391898199 8.24022812518194 1.1133736884935699 Q 8.308369793512709 1.0973514215784488 8.370950812103274 1.1232138675603593 Q 8.433531830693841 1.1490763135422701 8.473545729609155 1.2187676895768627 L 8.707085394690646 0.997437111405601 L 8.751261073470909 1.1853134255175801 M 8.418310786863058 1.455700382761732 L 8.394048496963018 1.3525144278608523 Q 8.383290689177151 1.306762164838764 8.355522379975536 1.289150492456974 Q 8.327754070773922 1.271538820075184 8.28686906977546 1.2811521802242565 Q 8.247930973586449 1.2903077613186114 8.2309204721707 1.3184483519589096 Q 8.213909970754953 1.3465889425992077 8.22466777854082 1.3923412056212958 L 8.24893006844086 1.4955271605221756 L 8.418310786863058 1.455700382761732" fill="#aac527" fill-rule="nonzero"></path></g><g transform="matrix(1,0,0,1,0,0)" clip-path="url(#SvgjsClipPath2685)"><g clip-path="url(#SvgjsClipPath2672d87929a3-1a84-4a6f-b99c-6b321063faa9)"><path d=" M 6.359235172740584 1.1021373943640362 C 6.3158887191483615 1.0602121359715588 6.21640505516621 0.9841781927852001 6.1673738207750075 0.9614390695892797 C 6.136107526380617 0.9472271175918295 6.106973024785844 0.9671238503882599 6.109815415185334 1.0005219375822678 C 6.133975733580999 1.9193246342174206 6.073574937591836 2.863708844447984 5.929323624817717 3.816620225877018 C 5.925770636818354 3.8478865202714077 5.9008997208228156 3.8663620578680935 5.872475816827917 3.869204448267583 C 5.438300683305814 3.9139720970595504 4.776023720224637 3.7270849282930816 3.6674914644235237 4.25079535939912 C 3.6383569628287504 4.2650073113965705 3.653990110025946 4.319012728986881 3.6845458068204633 4.3097749601885385 C 4.005025324362965 4.2074489058068965 4.302765718709545 4.141363329018753 4.570661013861482 4.100148668226148 C 5.0076785377830735 4.342462449782674 5.302576541730165 4.672179736123517 5.456065623302627 5.0900111248485524 C 5.4987014792949775 5.206549131227643 5.6642707200652715 5.202285545628408 5.701221795258642 5.0836157464497 C 5.790757092842579 4.795113120901462 5.863948645629447 4.390783086574005 5.729645699253542 4.051828031434819 C 5.844051912833016 4.060355202633288 5.9257706368183545 4.071014166631377 5.971248883210196 4.075277752230612 C 6.038045057598211 4.082383728229336 6.054388802395279 4.013455761041702 6.059362985594387 3.98432125944693 C 6.260462106358306 3.0186191212201923 6.375578917537653 2.068550130190648 6.396896845533828 1.154721616754603 C 6.3947650527342095 1.1326930911585542 6.375578917537652 1.1177705415612318 6.359235172740584 1.1021373943640362 Z" fill="#005a96" transform="matrix(1,0,0,1,0,0)" fill-rule="nonzero"></path></g><g clip-path="url(#SvgjsClipPath2672d87929a3-1a84-4a6f-b99c-6b321063faa9)"><path d=" M 5.457486818502371 3.2175864491844934 C 5.545600920886562 2.2803082149526555 5.568340044082482 1.350135956719542 5.522151200090769 0.44270282168234926 C 5.516466419291789 0.39225039209140106 5.510781638492809 0.3417979625004532 5.505096857693829 0.291345532909505 C 5.497990881695103 0.22810234652085185 5.447538452104156 0.1726757337307962 5.390690644114355 0.15348959853423852 C 4.738362047431393 -0.0795864142239442 4.229574165922676 -0.01918561823478113 3.84798325479114 0.1485154153351311 C 3.4685241364592203 0.316216448905043 3.2162619885044803 0.5912177200557035 3.1466234237169735 0.7873426576205157 C 3.1380962525185034 0.8115029760161808 3.121752507721436 0.8328209040123561 3.1189101173219465 0.860534210407384 C 3.033638405337245 1.9100868654190784 2.9441031077533086 2.9688772892291158 2.8773069333652934 4.00990277304234 C 2.8702009573665683 4.129283169820921 2.987449561345532 4.210291296206387 3.0606411141324004 4.137099743419519 C 3.7975308252001914 3.413000789149433 4.988492402586515 3.3561529811596325 5.343080604922897 3.345494017161545 C 5.403481400912059 3.3440728219617997 5.45464442810288 3.287225013971999 5.457486818502371 3.2175864491844934 Z" fill="#00aeef" transform="matrix(1,0,0,1,0,0)" fill-rule="nonzero"></path></g><g clip-path="url(#SvgjsClipPath2672d87929a3-1a84-4a6f-b99c-6b321063faa9)"><path d=" M 5.75735900564857 3.6993716218980532 C 5.784361714443724 3.696529231498564 5.809232630439262 3.677343096302006 5.812075020838753 3.646787399507488 C 5.950641552813892 2.644134186087379 6.002515177604584 1.650718741465613 5.962721712011724 0.6885695912382367 C 5.960589919212107 0.6615668824430815 5.935008405616697 0.6480655280455039 5.913690477620523 0.631721783248436 C 5.879581792826642 0.6054296720531535 5.777966336044872 0.5478712664634802 5.73461988245265 0.5350805096657749 C 5.705485380857876 0.5265533384673048 5.682746257661957 0.5464500712637351 5.68629924566132 0.578426963257998 C 5.741015260851502 1.5157051974898368 5.7182761376555815 2.4771437501173397 5.6195030712733045 3.4449776811436963 C 5.618081876073559 3.4748227803383425 5.595342752877638 3.4989830987340067 5.569050641682355 3.4989830987340067 C 5.4411430737053035 3.4975619035342613 5.019758696980907 3.509642062732095 4.548632488265434 3.6020197507155207 C 4.078216877149834 3.6958186338986914 3.557348836443285 3.8706256434673283 3.2461070876991265 4.22521384580371 C 3.229052745302187 4.244399981000269 3.2489494780986163 4.281351056193639 3.2688462108950476 4.266428506596316 C 3.7683963236054203 3.9026025354615914 4.3297684275047015 3.769720784285433 4.791656867421833 3.72353194029372 C 5.254966502538706 3.6766324987021326 5.618792473673431 3.7178471594947387 5.75735900564857 3.6993716218980532 Z" fill="#008bbf" transform="matrix(1,0,0,1,0,0)" fill-rule="nonzero"></path></g><g clip-path="url(#SvgjsClipPath2672d87929a3-1a84-4a6f-b99c-6b321063faa9)"><path d=" M 2.932022948555477 0.7034921408355592 C 2.4665815206389836 0.16983334333130531 1.9990082999228738 0.056848324951576636 1.593967667995544 0.09522059534469228 C 1.192480024067577 0.13430346333768028 0.8542355665282632 0.3247436201035123 0.7234856081517216 0.40433055128923306 C 0.6865345329583513 0.42706967448515315 0.6581106289634508 0.46544194487826906 0.6446092745658732 0.5094989960703642 C 0.3653444178159777 1.4098261551088322 0.1436379666557549 2.2852823981517623 0.0022290442811257758 3.108154418804127 C -0.016246493315559385 3.2133228635852573 0.08323717066659168 3.322044296365752 0.18556322504823294 3.3149383203670264 C 0.7796228185416498 3.268038878775441 1.276330540852533 3.3739179211564445 1.6628956351831772 3.541618954726357 C 2.050171327113694 3.7086093906963957 2.3280149886638446 3.936711220255472 2.49642661983363 4.104412253825383 C 2.5866725150174377 4.194658149009192 2.710316497395254 4.140652731418882 2.718843668593724 4.00990277304234 C 2.7849292453818673 2.9674560940293704 2.880859921364656 1.9044020846200982 2.9767905973474447 0.8498752464092965 C 2.981764780546553 0.7972910240187305 2.9654210357494843 0.7418644112286749 2.932022948555477 0.7034921408355592 Z" fill="#00aeef" transform="matrix(1,0,0,1,0,0)" fill-rule="nonzero"></path></g><g clip-path="url(#SvgjsClipPath2672d87929a3-1a84-4a6f-b99c-6b321063faa9)"><path d=" M 2.257665826276466 4.046143250635838 C 1.920131966337025 3.745560465889767 1.1789786696699989 3.38955106835364 0.33052513542222445 3.4577684379414007 C 0.3113390002256668 3.459189633141146 0.29499525542859917 3.468427401939489 0.29144226742923646 3.487613537136047 C 0.28078330343114893 3.5579626995234253 0.27083493703293376 3.6276012643109317 0.2615971682345913 3.696529231498564 C 0.2552017898357385 3.7306379162924443 0.2878892794298741 3.771141979485177 0.32128736662388196 3.7690101866855596 C 0.672322580960901 3.755508832287982 1.4767190640165804 3.6901338530997116 2.2434538742790164 4.083804923429081 C 2.266192997474936 4.096595680226786 2.2775625590728965 4.063197593032778 2.257665826276466 4.046143250635838 Z" fill="#008bbf" transform="matrix(1,0,0,1,0,0)" fill-rule="nonzero"></path></g><g clip-path="url(#SvgjsClipPath2672d87929a3-1a84-4a6f-b99c-6b321063faa9)"><path d=" M 2.0082460687212165 4.099438070626276 C 1.4340832080242296 3.814488433077399 0.6311079201682953 3.8493077154711517 0.441378361002336 3.9097085114603156 C 0.42929820180450345 3.9139720970595504 0.4193498354062883 3.9210780730582755 0.4193498354062883 3.9352900250557252 C 0.41863923780641565 4.019140541840682 0.41792864020654324 4.102991058625638 0.41863923780641565 4.186130977810721 C 0.41863923780641565 4.212423089006004 0.4470631418013161 4.238004602601413 0.4690916673973638 4.231609224202561 C 1.0347273568958804 4.076698947430354 1.6657380255826673 4.125730181821558 2.006114275921599 4.1562858786160755 C 2.034538179916499 4.159838866615439 2.035959375116244 4.113650022623726 2.0082460687212165 4.099438070626276 Z" fill="#005a96" transform="matrix(1,0,0,1,0,0)" fill-rule="nonzero"></path></g></g><g><path d=" M -1.3520039903257004 2.5875308189667905 A 4.550452413092614 4.550452413092614 0 0 1 7.748900835859528 2.5875308189667905 A 4.550452413092614 4.550452413092614 0 0 1 -1.3520039903257004 2.5875308189667905 Z M -1.3020039903257006 2.5875308189667896 A 4.500452413092614 4.500452413092614 0 0 0 7.698900835859527 2.5875308189667896 A 4.500452413092614 4.500452413092614 0 0 0 -1.3020039903257006 2.5875308189667896 Z" fill="#343432" fill-rule="nonzero"></path></g><g><path d=" M -3.1600981977284897 2.587530818966791 A 6.358546620495404 6.358546620495404 0 0 1 9.556995043262319 2.587530818966791 A 6.358546620495404 6.358546620495404 0 0 1 -3.160098197728489 2.587530818966791 Z M -3.11009819772849 2.58753081896679 A 6.308546620495403 6.308546620495403 0 0 0 9.506995043262316 2.58753081896679 A 6.308546620495403 6.308546620495403 0 0 0 -3.1100981977284903 2.58753081896679 Z" fill="#343432" fill-rule="nonzero"></path></g><g transform="matrix(0.6900165726105865,-0.7237935683071101,0.7237935683071101,0.6900165726105865,-0.29605353328009665,-1.0722816743894752)"><g clip-path="url(#SvgjsClipPath2686)"><path d=" M -1.5764026529858222 0.07266583186193942 C -1.5632440210958223 0.08261552896193936 -1.5471971561858222 0.07940577256193937 -1.5285824861558224 0.06592589116193937 L -1.3998849480158224 -0.02875370653806064 L -1.2711879576158223 0.06592589116193937 C -1.2528934416158224 0.07940577256193937 -1.2368473983158224 0.08261552896193936 -1.2236879448158224 0.07266583186193942 C -1.2108516579158224 0.06303656266193935 -1.2082827573158224 0.04699051936193943 -1.2156635538158223 0.025806674861939327 L -1.2666937509158225 -0.1256762995380606 L -1.1367123102158223 -0.2187482803380606 C -1.1184205329158223 -0.23158730593806054 -1.1103961419158224 -0.24602847103806058 -1.1155312044158223 -0.26175682513806053 C -1.1209866948158225 -0.2768388460380606 -1.1354305986158224 -0.2842223812380606 -1.1582165826158222 -0.28390195333806056 L -1.3174035201158223 -0.28261750303806055 L -1.3655443887158223 -0.43474325032806055 C -1.3726047573158224 -0.4565671290180605 -1.3838389047158222 -0.4684421322180605 -1.3998849480158224 -0.4684421322180605 C -1.4162541579158223 -0.4684421322180605 -1.4271651387158224 -0.4565671290180605 -1.4342255073158223 -0.43474325032806055 L -1.4826868038158223 -0.28261750303806055 L -1.6418748367958222 -0.28390195333806056 C -1.6643406667658223 -0.2842223812380606 -1.6791039029858223 -0.2768388460380606 -1.6842389654858223 -0.26175682513806053 C -1.6893740279858223 -0.24602847103806058 -1.6813504585958223 -0.23158730593806054 -1.6630570380758223 -0.2187482803380606 L -1.5330755973758223 -0.1256762995380606 L -1.5841052467358223 0.025806674861939327 C -1.5914868648458222 0.04699051936193943 -1.5889193335958223 0.06303656266193935 -1.5764026529858222 0.07266583186193942 Z" fill="#343432" transform="matrix(1,0,0,1,0,0)" fill-rule="nonzero"></path></g></g><g transform="matrix(-0.6900165726105865,-0.7237935683071101,-0.7237935683071101,0.6900165726105865,13.038802843270702,5.584206563019521)"><g clip-path="url(#SvgjsClipPath2687)"><path d=" M 7.62026408857965 0.07266583186193942 C 7.6334227204696505 0.08261552896193936 7.64946958537965 0.07940577256193937 7.66808425540965 0.06592589116193937 L 7.79678179354965 -0.02875370653806064 L 7.92547878394965 0.06592589116193937 C 7.94377329994965 0.07940577256193937 7.9598193432496505 0.08261552896193936 7.972978796749651 0.07266583186193942 C 7.98581508364965 0.06303656266193935 7.9883839842496505 0.04699051936193943 7.98100318774965 0.025806674861939327 L 7.9299729906496506 -0.1256762995380606 L 8.05995443134965 -0.2187482803380606 C 8.07824620864965 -0.23158730593806054 8.08627059964965 -0.24602847103806058 8.08113553714965 -0.26175682513806053 C 8.07568004674965 -0.2768388460380606 8.06123614294965 -0.2842223812380606 8.03845015894965 -0.28390195333806056 L 7.8792632214496505 -0.28261750303806055 L 7.8311223528496505 -0.43474325032806055 C 7.82406198424965 -0.4565671290180605 7.81282783684965 -0.4684421322180605 7.79678179354965 -0.4684421322180605 C 7.7804125836496505 -0.4684421322180605 7.76950160284965 -0.4565671290180605 7.762441234249651 -0.43474325032806055 L 7.7139799377496505 -0.28261750303806055 L 7.55479190476965 -0.28390195333806056 C 7.53232607479965 -0.2842223812380606 7.51756283857965 -0.2768388460380606 7.51242777607965 -0.26175682513806053 C 7.50729271357965 -0.24602847103806058 7.515316282969651 -0.23158730593806054 7.533609703489651 -0.2187482803380606 L 7.663591144189651 -0.1256762995380606 L 7.6125614948296505 0.025806674861939327 C 7.60517987671965 0.04699051936193943 7.607747407969651 0.06303656266193935 7.62026408857965 0.07266583186193942 Z" fill="#343432" transform="matrix(1,0,0,1,0,0)" fill-rule="nonzero"></path></g></g></g><defs><clipPath id="SvgjsClipPath2685"><path d=" M 0 0 h 6.396896845533828 v 5.17506163793358 h -6.396896845533828 Z"></path></clipPath><clipPath id="SvgjsClipPath2672d87929a3-1a84-4a6f-b99c-6b321063faa9"><path d=" M 0 0 L 6.396896845533828 0 L 6.396896845533828 5.17506163793358 L 0 5.17506163793358 Z"></path></clipPath><clipPath id="SvgjsClipPath2686"><path d=" M -1.7833029480158222 -0.5739248059380605 h 0.7668359999999999 v 0.7668359999999999 h -0.7668359999999999 Z"></path></clipPath><clipPath id="SvgjsClipPath2687"><path d=" M 7.41336379354965 -0.5739248059380605 h 0.7668359999999999 v 0.7668359999999999 h -0.7668359999999999 Z"></path></clipPath></defs></svg>